<?xml version="1.0" encoding="UTF-8"?>
<svg version="1.1" xmlns="http://www.w3.org/2000/svg" width="216" height="216">
<path d="M0 0 C1.33804688 0.04060547 1.33804688 0.04060547 2.703125 0.08203125 C3.71632812 0.13423828 3.71632812 0.13423828 4.75 0.1875 C4.75 0.8475 4.75 1.5075 4.75 2.1875 C5.41 2.1875 6.07 2.1875 6.75 2.1875 C6.75 2.8475 6.75 3.5075 6.75 4.1875 C7.41 4.1875 8.07 4.1875 8.75 4.1875 C9.39870339 7.2077423 10.04404156 10.22863979 10.6875 13.25 C10.96110352 14.52133789 10.96110352 14.52133789 11.24023438 15.81835938 C11.41748047 16.65302734 11.59472656 17.48769531 11.77734375 18.34765625 C11.93968506 19.10699463 12.10202637 19.86633301 12.26928711 20.64868164 C17.90311903 50.40298236 12.90310976 79.68806045 -1.25 106.1875 C-1.91 106.1875 -2.57 106.1875 -3.25 106.1875 C-3.394375 106.80625 -3.53875 107.425 -3.6875 108.0625 C-4.25 110.1875 -4.25 110.1875 -5.25 112.1875 C-5.91 112.1875 -6.57 112.1875 -7.25 112.1875 C-7.25 113.1775 -7.25 114.1675 -7.25 115.1875 C-8.24 115.8475 -9.23 116.5075 -10.25 117.1875 C-10.745 118.6725 -10.745 118.6725 -11.25 120.1875 C-13.68768744 122.76898361 -16.5104593 124.93489466 -19.25 127.1875 C-20.13558594 127.95578125 -21.02117187 128.7240625 -21.93359375 129.515625 C-46.47283804 149.81076072 -79.09292551 156.30320426 -110.25 155.1875 C-110.39824219 156.28578125 -110.54648438 157.3840625 -110.69921875 158.515625 C-111.33198025 162.73403503 -112.00474122 165.74299981 -114.8125 169 C-118.60793823 170.84905965 -122.11921171 170.94456618 -126.25 170.1875 C-129.3125 168.25 -129.3125 168.25 -131.25 165.1875 C-132.88194719 155.84089336 -128.48191792 147.02207681 -123.3515625 139.34765625 C-119.08587869 133.8764531 -114.24821085 128.98622571 -109.25 124.1875 C-108.72019531 123.61902344 -108.19039062 123.05054688 -107.64453125 122.46484375 C-106.25 121.1875 -106.25 121.1875 -104.25 121.1875 C-104.25 120.5275 -104.25 119.8675 -104.25 119.1875 C-102.109375 117.6640625 -102.109375 117.6640625 -99 115.8125 C-98.43152344 115.46799805 -97.86304688 115.12349609 -97.27734375 114.76855469 C-93.67871277 112.59611798 -90.04276265 110.49506485 -86.390625 108.4140625 C-75.20744469 101.9752293 -63.57008327 95.1676249 -56.25 84.1875 C-56.56730524 80.54810068 -56.56730524 80.54810068 -57.25 77.1875 C-58.466875 77.084375 -59.68375 76.98125 -60.9375 76.875 C-61.62199219 76.81699219 -62.30648437 76.75898437 -63.01171875 76.69921875 C-66.43626357 77.4462835 -67.89879106 79.64974305 -70.25 82.1875 C-90.02876106 100.1875 -90.02876106 100.1875 -97.25 100.1875 C-97.25 100.8475 -97.25 101.5075 -97.25 102.1875 C-98.796875 102.868125 -98.796875 102.868125 -100.375 103.5625 C-110.25438053 108.52851188 -119.11301412 115.45972211 -126.578125 123.5703125 C-128.25 125.1875 -128.25 125.1875 -130.25 125.1875 C-135.14721279 111.59283729 -134.30269236 92.28544842 -128.25 79.1875 C-127.81816406 78.24777344 -127.38632813 77.30804688 -126.94140625 76.33984375 C-125.76759676 73.91907938 -124.53067026 71.55281957 -123.25 69.1875 C-122.57877106 67.85645758 -121.91059924 66.52384983 -121.25 65.1875 C-120.59 65.1875 -119.93 65.1875 -119.25 65.1875 C-118.88648438 64.35412109 -118.88648438 64.35412109 -118.515625 63.50390625 C-107.26132419 42.90575694 -81.62652093 31.46384588 -60.25 25.1875 C-56.4057809 24.16809547 -52.54670136 23.21085594 -48.6875 22.25 C-32.54530767 18.18331241 -19.82112658 12.45788249 -7.25 1.43359375 C-4.68180907 -0.16650959 -2.99816668 -0.11834868 0 0 Z " fill="#5AB46B" transform="translate(167.25,10.8125)"/>
<path d="M0 0 C0.66 0.33 1.32 0.66 2 1 C0.04532248 2.33898399 -1.9133579 3.67129047 -3.875 5 C-4.96554688 5.7425 -6.05609375 6.485 -7.1796875 7.25 C-10 9 -10 9 -12 9 C-12.09982178 9.5887793 -12.19964355 10.17755859 -12.30249023 10.78417969 C-13.13083282 13.4156243 -14.19241512 14.53856606 -16.16015625 16.453125 C-16.78857422 17.071875 -17.41699219 17.690625 -18.06445312 18.328125 C-18.72380859 18.96234375 -19.38316406 19.5965625 -20.0625 20.25 C-20.72572266 20.8996875 -21.38894531 21.549375 -22.07226562 22.21875 C-23.70829317 23.8194676 -25.35090912 25.41276193 -27 27 C-27.99 26.67 -28.98 26.34 -30 26 C-29.56429687 25.50371094 -29.12859375 25.00742188 -28.6796875 24.49609375 C-27.78636719 23.47708984 -27.78636719 23.47708984 -26.875 22.4375 C-26.23691406 21.71304688 -25.59882812 20.98859375 -24.94140625 20.2421875 C-23.71807625 18.8293275 -22.51438723 17.39898279 -21.33984375 15.9453125 C-20.83582031 15.32398438 -20.33179688 14.70265625 -19.8125 14.0625 C-19.36519531 13.49660156 -18.91789062 12.93070313 -18.45703125 12.34765625 C-16.70518495 10.72731583 -15.32517477 10.39333792 -13 10 C-13 9.34 -13 8.68 -13 8 C-10.90043111 6.50073038 -8.8271391 5.14353977 -6.625 3.8125 C-6.02171875 3.43158203 -5.4184375 3.05066406 -4.796875 2.65820312 C-3.23780048 1.70370306 -1.62150526 0.84409978 0 0 Z " fill="#36683F" transform="translate(76,122)"/>
<path d="M0 0 C1.28934684 2.57869369 0.82144674 3.65999235 0.1875 6.4375 C0.01605469 7.21996094 -0.15539063 8.00242188 -0.33203125 8.80859375 C-1 11 -1 11 -3 14 C-3.66 14 -4.32 14 -5 14 C-5.02712066 15.43739513 -5.04645067 16.87493863 -5.0625 18.3125 C-5.07410156 19.11300781 -5.08570313 19.91351563 -5.09765625 20.73828125 C-5.09657855 23.16861334 -5.09657855 23.16861334 -4 26 C-4.66 26 -5.32 26 -6 26 C-7.79341102 22.41317797 -7.58017215 18.86078194 -7 15 C-2.59075908 2.59075908 -2.59075908 2.59075908 0 0 Z " fill="#25472C" transform="translate(43,152)"/>
<path d="M0 0 C0.90105469 0.02707031 1.80210937 0.05414063 2.73046875 0.08203125 C3.76107422 0.13423828 3.76107422 0.13423828 4.8125 0.1875 C4.8125 0.8475 4.8125 1.5075 4.8125 2.1875 C5.4725 2.1875 6.1325 2.1875 6.8125 2.1875 C6.8125 3.1775 6.8125 4.1675 6.8125 5.1875 C6.19375 4.8575 5.575 4.5275 4.9375 4.1875 C0.55038488 2.78362316 -3.61901427 3.02782477 -8.1875 3.1875 C-5.67753317 0.01043235 -3.96125134 -0.15433447 0 0 Z " fill="#3E824A" transform="translate(167.1875,10.8125)"/>
<path d="M0 0 C0.33 0 0.66 0 1 0 C1 1.98 1 3.96 1 6 C2.98 5.67 4.96 5.34 7 5 C5.71937515 6.7074998 4.38232443 8.37373596 3 10 C2.34 10 1.68 10 1 10 C-1.125 3.375 -1.125 3.375 0 0 Z " fill="#2D5935" transform="translate(36,126)"/>
<path d="M0 0 C-1.63412443 1.70840281 -2.86906094 2.93453047 -5 4 C-7.3329866 4.04022391 -9.66706666 4.04320247 -12 4 C-7.72679547 1.15119698 -5.21831143 -0.28990619 0 0 Z " fill="#499758" transform="translate(147,25)"/>
</svg>
