<?xml version="1.0" encoding="UTF-8"?>
<svg version="1.1" xmlns="http://www.w3.org/2000/svg" width="216" height="216">
<path d="M0 0 C5.27446564 4.00987449 6.16363747 8.05191377 7.25 14.25 C7.48976562 15.46236328 7.48976562 15.46236328 7.734375 16.69921875 C13.99414478 49.30218637 9.37475537 79.81694854 -8 108 C-8.60714844 108.99 -9.21429688 109.98 -9.83984375 111 C-12.67405129 115.43494579 -12.67405129 115.43494579 -14 117 C-14.66 117 -15.32 117 -16 117 C-16.37125 117.86625 -16.37125 117.86625 -16.75 118.75 C-18.18299988 121.32939979 -19.78424676 123.06121592 -22 125 C-22.66 125 -23.32 125 -24 125 C-24 125.66 -24 126.32 -24 127 C-45.67540068 143.75483559 -69.85571251 151.31398462 -97 153 C-98.60159854 153.11015432 -100.20316177 153.2208233 -101.8046875 153.33203125 C-105.5350491 153.58293628 -109.26642175 153.8018492 -113 154 C-113.32613281 154.84304687 -113.65226562 155.68609375 -113.98828125 156.5546875 C-114.42527344 157.65039062 -114.86226562 158.74609375 -115.3125 159.875 C-115.74175781 160.96554688 -116.17101562 162.05609375 -116.61328125 163.1796875 C-118 166 -118 166 -121 168 C-124.88476191 168.42379221 -127.10176781 168.61457992 -130.375 166.375 C-132.37335243 163.45433107 -132.70229068 161.52147599 -133 158 C-126.91082007 133.57985133 -109.25199814 120.9718171 -89.03466797 108.78979492 C-81.58186694 104.29749391 -74.58296165 99.73276365 -68 94 C-67.23945312 93.3709375 -66.47890625 92.741875 -65.6953125 92.09375 C-60.94591849 88.24106275 -60.94591849 88.24106275 -58 83 C-58.75358163 78.65120121 -58.75358163 78.65120121 -61 75 C-62.51928038 74.92820036 -64.04167482 74.91607993 -65.5625 74.9375 C-66.38878906 74.94652344 -67.21507813 74.95554687 -68.06640625 74.96484375 C-68.70449219 74.97644531 -69.34257813 74.98804687 -70 75 C-70 75.66 -70 76.32 -70 77 C-71.6396721 78.36639342 -73.31110128 79.6949419 -75 81 C-75.56332031 81.58910156 -76.12664062 82.17820312 -76.70703125 82.78515625 C-79.72944318 85.70458992 -83.03888212 88.10074453 -86.4375 90.5625 C-87.09298828 91.04396484 -87.74847656 91.52542969 -88.42382812 92.02148438 C-97.99408958 99 -97.99408958 99 -102 99 C-102 99.66 -102 100.32 -102 101 C-104.475 101.495 -104.475 101.495 -107 102 C-107 102.66 -107 103.32 -107 104 C-108.4160599 104.79275148 -109.83287553 105.58415312 -111.25 106.375 C-112.03890625 106.81585938 -112.8278125 107.25671875 -113.640625 107.7109375 C-115.73914197 108.85747823 -117.8536077 109.94649552 -120 111 C-120 111.66 -120 112.32 -120 113 C-121.6796875 114.40234375 -121.6796875 114.40234375 -123.875 115.9375 C-126.67496035 117.89947938 -128.06062762 119.09094143 -130 122 C-130.66 122 -131.32 122 -132 122 C-136.61718239 103.77950606 -134.96679693 86.71932016 -125.9375 70 C-109.49458973 43.09982132 -82.3994945 30.95611159 -53.24609375 22.97363281 C-38.62493423 18.94498548 -24.81617507 13.81294146 -13 4 C-8.50696442 0.51560506 -5.74350701 -0.9398466 0 0 Z " fill="#5EBA6E" transform="translate(170,12)"/>
<path d="M0 0 C0.66 0 1.32 0 2 0 C0.22128641 4.33444418 -2.53217569 5.99400398 -6.3203125 8.53515625 C-6.87460938 9.01855469 -7.42890625 9.50195312 -8 10 C-8 10.99 -8 11.98 -8 13 C-9.175625 13.0928125 -9.175625 13.0928125 -10.375 13.1875 C-11.24125 13.455625 -12.1075 13.72375 -13 14 C-14.37466625 16.47636012 -14.37466625 16.47636012 -15 19 C-15.99 18.67 -16.98 18.34 -18 18 C-18.598125 18.66 -19.19625 19.32 -19.8125 20 C-22 22 -22 22 -25 22 C-29.27095585 22.42709559 -31.13767449 24.99455822 -34 28 C-36.125 29.875 -36.125 29.875 -38 31 C-38.99 30.67 -39.98 30.34 -41 30 C-40.649375 30.763125 -40.29875 31.52625 -39.9375 32.3125 C-39 35 -39 35 -40 38 C-44.455 38.495 -44.455 38.495 -49 39 C-48.34 39.99 -47.68 40.98 -47 42 C-47.99 42.495 -47.99 42.495 -49 43 C-49.65213292 45.02463255 -49.65213292 45.02463255 -50 47 C-50.61230469 47.08765625 -51.22460938 47.1753125 -51.85546875 47.265625 C-54.10201536 47.81620033 -54.10201536 47.81620033 -55.30078125 49.671875 C-57.50877736 54.11647907 -57.50877736 54.11647907 -57.75 59 C-57.5025 59.66 -57.255 60.32 -57 61 C-58.32 60.67 -59.64 60.34 -61 60 C-62.27253436 63.64793184 -63.32829194 67.1936543 -64 71 C-64.66 70.34 -65.32 69.68 -66 69 C-65.72603104 56.39742788 -57.34268314 43.37608907 -49 34.4375 C-39.76088682 25.66579558 -28.23250499 19.51248766 -17.37939453 12.98730469 C-11.18086903 9.21546474 -5.15622398 5.15622398 0 0 Z " fill="#5DA16A" transform="translate(103,105)"/>
<path d="M0 0 C5.30319955 4.02172732 6.19968618 8.15095041 7.3125 14.375 C7.48072266 15.2 7.64894531 16.025 7.82226562 16.875 C8.75342953 21.66384294 9.17737629 26.12543679 9 31 C8.34 30.67 7.68 30.34 7 30 C6.54778956 27.52318728 6.20441799 25.12242396 5.9375 22.625 C5.34578059 17.23996103 5.34578059 17.23996103 4 12 C3.34 11.67 2.68 11.34 2 11 C0.375 9.6875 0.375 9.6875 -1 8 C-1 6.68 -1 5.36 -1 4 C-4.34252724 3.92572162 -6.8035914 3.93453047 -10 5 C-10 5.99 -10 6.98 -10 8 C-11.33333333 8.66666667 -12.66666667 9.33333333 -14 10 C-14.33 10.66 -14.66 11.32 -15 12 C-15.99 12 -16.98 12 -18 12 C-18.33 12.99 -18.66 13.98 -19 15 C-19.99 15 -20.98 15 -22 15 C-22.66 16.32 -23.32 17.64 -24 19 C-24 18.01 -24 17.02 -24 16 C-26.31 16.33 -28.62 16.66 -31 17 C-31.33 17.99 -31.66 18.98 -32 20 C-33.65 20 -35.3 20 -37 20 C-37 19.34 -37 18.68 -37 18 C-35.9378125 17.49210937 -34.875625 16.98421875 -33.78125 16.4609375 C-26.33451175 12.85114478 -19.39868882 9.31389882 -13 4 C-8.50696442 0.51560506 -5.74350701 -0.9398466 0 0 Z " fill="#6CC87D" transform="translate(170,12)"/>
<path d="M0 0 C0.66 0 1.32 0 2 0 C2.33 1.32 2.66 2.64 3 4 C6.99613673 5.03502996 6.99613673 5.03502996 11 4 C13.6875 4.4375 13.6875 4.4375 16 5 C14.84357868 8.46926395 13.98305356 8.97198451 11.0625 11 C8.2730396 12.94401596 6.93215117 14.10177325 5 17 C4.34 17 3.68 17 3 17 C2.49891085 14.35436861 1.99907767 11.70851088 1.5 9.0625 C1.35691406 8.30775391 1.21382812 7.55300781 1.06640625 6.77539062 C0 1.11328125 0 1.11328125 0 0 Z " fill="#5BA969" transform="translate(35,117)"/>
<path d="M0 0 C0.66 0 1.32 0 2 0 C0.19672131 9.73770492 0.19672131 9.73770492 -3 14 C-6.01868434 15.50934217 -8.67297229 15.17510672 -12 15 C-12.99 14.34 -13.98 13.68 -15 13 C-15 12.34 -15 11.68 -15 11 C-14.071875 11.20625 -13.14375 11.4125 -12.1875 11.625 C-8.84826598 12.36692966 -8.84826598 12.36692966 -6 10 C-4.00449854 8.00449854 -3.18623607 6.52075165 -2 4 C-1.33333333 2.66666667 -0.66666667 1.33333333 0 0 Z " fill="#518C5E" transform="translate(54,165)"/>
<path d="M0 0 C0 0.66 0 1.32 0 2 C-0.9590625 2.3403125 -0.9590625 2.3403125 -1.9375 2.6875 C-4.2772507 3.84191647 -4.2772507 3.84191647 -4.62890625 6.58203125 C-4.75136719 7.37996094 -4.87382813 8.17789063 -5 9 C-6.97986082 8.88652381 -8.95891598 8.7589065 -10.9375 8.625 C-12.03964844 8.55539063 -13.14179687 8.48578125 -14.27734375 8.4140625 C-15.17582031 8.27742188 -16.07429688 8.14078125 -17 8 C-17.33 7.34 -17.66 6.68 -18 6 C-17.01 6 -16.02 6 -15 6 C-15 5.34 -15 4.68 -15 4 C-12.87607494 3.3299166 -10.75082476 2.66403203 -8.625 2 C-7.44164063 1.62875 -6.25828125 1.2575 -5.0390625 0.875 C-2 0 -2 0 0 0 Z " fill="#62D179" transform="translate(132,31)"/>
<path d="M0 0 C0.66 0 1.32 0 2 0 C2 0.66 2 1.32 2 2 C2.99 1.67 3.98 1.34 5 1 C7.00376601 1.30989174 9.00305754 1.64881357 11 2 C14.12140978 2.25906437 17.24676278 2.41032897 20.375 2.5625 C21.20644531 2.60568359 22.03789063 2.64886719 22.89453125 2.69335938 C24.92953228 2.79861805 26.96474703 2.89973072 29 3 C29 3.33 29 3.66 29 4 C14.645 4.99 14.645 4.99 0 6 C0 4 0 2 0 0 Z " fill="#71A77B" transform="translate(56,160)"/>
<path d="M0 0 C0 1.32 0 2.64 0 4 C-1.64333504 5.03789581 -3.31243867 6.03567924 -5 7 C-6.32793606 9.06700655 -6.32793606 9.06700655 -7 11 C-7.7425 10.773125 -8.485 10.54625 -9.25 10.3125 C-12.05914993 9.70523302 -12.05914993 9.70523302 -14.3125 11.4375 C-14.869375 11.953125 -15.42625 12.46875 -16 13 C-13.14118043 6.56765597 -7.66791038 0 0 0 Z " fill="#66C375" transform="translate(78,52)"/>
<path d="M0 0 C-0.78375 0.4125 -1.5675 0.825 -2.375 1.25 C-5.10985059 2.73365312 -5.10985059 2.73365312 -5.9375 5.125 C-7 7 -7 7 -10 7.875 C-10.99 7.91625 -11.98 7.9575 -13 8 C-13.66 7.34 -14.32 6.68 -15 6 C-15 5.01 -15 4.02 -15 3 C-13.25531628 2.29911844 -11.50398839 1.61475991 -9.75 0.9375 C-8.77546875 0.55464844 -7.8009375 0.17179687 -6.796875 -0.22265625 C-3.95992605 -1.01113787 -2.70590448 -1.02437812 0 0 Z " fill="#66C779" transform="translate(106,40)"/>
<path d="M0 0 C0.33 0.66 0.66 1.32 1 2 C1.66 2.33 2.32 2.66 3 3 C2.34 3 1.68 3 1 3 C1 3.66 1 4.32 1 5 C0.38125 5.268125 -0.2375 5.53625 -0.875 5.8125 C-3.2995233 6.95556848 -3.2995233 6.95556848 -5 10 C-5 11.32 -5 12.64 -5 14 C-7.475 13.01 -7.475 13.01 -10 12 C-10 11.34 -10 10.68 -10 10 C-9.34 10 -8.68 10 -8 10 C-7.7525 9.38125 -7.505 8.7625 -7.25 8.125 C-5.76259631 5.59641373 -4.56321991 5.28160996 -2 4 C-0.73195434 1.9664052 -0.73195434 1.9664052 0 0 Z " fill="#60C374" transform="translate(60,65)"/>
<path d="M0 0 C1.65 0.33 3.3 0.66 5 1 C4.5 2.875 4.5 2.875 3 5 C0.34822355 5.98494554 -2.20547307 6.45912382 -5 7 C-5.33 6.01 -5.66 5.02 -6 4 C-5.34 3.01 -4.68 2.02 -4 1 C-2.68 1.33 -1.36 1.66 0 2 C0 1.34 0 0.68 0 0 Z " fill="#59A365" transform="translate(128,144)"/>
<path d="M0 0 C0.8125 1.625 0.8125 1.625 1 4 C-0.18047793 5.50838846 -1.37331525 7.01095421 -2.66015625 8.4296875 C-5.38540161 11.62370684 -6.77193177 15.30237954 -8.0625 19.25 C-9 22 -9 22 -11 24 C-9.5007001 14.85427059 -5.70024812 7.29972073 0 0 Z " fill="#65AD75" transform="translate(49,75)"/>
<path d="M0 0 C0 0.99 0 1.98 0 3 C-0.63808594 3.10957031 -1.27617188 3.21914063 -1.93359375 3.33203125 C-2.75988281 3.49058594 -3.58617188 3.64914063 -4.4375 3.8125 C-5.26121094 3.96332031 -6.08492187 4.11414062 -6.93359375 4.26953125 C-7.61550781 4.51058594 -8.29742187 4.75164063 -9 5 C-9.33 5.99 -9.66 6.98 -10 8 C-12.06640625 8.94921875 -12.06640625 8.94921875 -14.5625 9.6875 C-15.80193359 10.06455078 -15.80193359 10.06455078 -17.06640625 10.44921875 C-17.70449219 10.63097656 -18.34257813 10.81273437 -19 11 C-15.84559881 7.4882036 -12.53598933 5.44790407 -8.375 3.25 C-7.22773437 2.63640625 -6.08046875 2.0228125 -4.8984375 1.390625 C-2 0 -2 0 0 0 Z " fill="#69B976" transform="translate(90,44)"/>
<path d="M0 0 C0.66 0.66 1.32 1.32 2 2 C1.67 2.66 1.34 3.32 1 4 C0.34 4 -0.32 4 -1 4 C-1.2475 4.5775 -1.495 5.155 -1.75 5.75 C-3.18299988 8.32939979 -4.78424676 10.06121592 -7 12 C-7.66 12 -8.32 12 -9 12 C-9 10.35 -9 8.7 -9 7 C-8.34 6.67 -7.68 6.34 -7 6 C-6.01 6.33 -5.02 6.66 -4 7 C-3.34 5.35 -2.68 3.7 -2 2 C-1.34 2 -0.68 2 0 2 C0 1.34 0 0.68 0 0 Z " fill="#6BB379" transform="translate(155,125)"/>
<path d="M0 0 C0.66 0 1.32 0 2 0 C2.09796875 0.69867188 2.1959375 1.39734375 2.296875 2.1171875 C2.44640625 3.02726562 2.5959375 3.93734375 2.75 4.875 C2.88921875 5.77992187 3.0284375 6.68484375 3.171875 7.6171875 C3.77983843 10.16214243 3.77983843 10.16214243 6.078125 11.3203125 C6.71234375 11.54460937 7.3465625 11.76890625 8 12 C6.625 14.5 6.625 14.5 5 17 C4.34 17 3.68 17 3 17 C2.49891085 14.35436861 1.99907767 11.70851088 1.5 9.0625 C1.35691406 8.30775391 1.21382812 7.55300781 1.06640625 6.77539062 C0 1.11328125 0 1.11328125 0 0 Z " fill="#5D9B68" transform="translate(35,117)"/>
<path d="M0 0 C2.8125 0.125 2.8125 0.125 6 1 C7.875 4.0625 7.875 4.0625 9 7 C7.35 7.33 5.7 7.66 4 8 C3.67 6.02 3.34 4.04 3 2 C2.01 2 1.02 2 0 2 C0 1.34 0 0.68 0 0 Z " fill="#69D980" transform="translate(166,14)"/>
<path d="M0 0 C0 0.66 0 1.32 0 2 C-0.598125 2.268125 -1.19625 2.53625 -1.8125 2.8125 C-3.97224808 3.98493467 -5.35790256 5.19369282 -7 7 C-7.33 6.34 -7.66 5.68 -8 5 C-10.31 5 -12.62 5 -15 5 C-12.18178397 3.12118931 -10.14357281 2.30990783 -6.9375 1.375 C-6.05964844 1.11460938 -5.18179688 0.85421875 -4.27734375 0.5859375 C-2 0 -2 0 0 0 Z " fill="#6BC37B" transform="translate(132,31)"/>
<path d="M0 0 C0.66 0 1.32 0 2 0 C1.70100785 3.58790575 1.23013399 4.78166776 -1.4375 7.3125 C-4 9 -4 9 -6 9 C-5.34 7.68 -4.68 6.36 -4 5 C-3.34 5 -2.68 5 -2 5 C-1.34 3.35 -0.68 1.7 0 0 Z " fill="#64A36F" transform="translate(140,137)"/>
<path d="M0 0 C0.66 0 1.32 0 2 0 C2 1.32 2 2.64 2 4 C-0.61630224 5.90919353 -2.92633278 6.97544426 -6 8 C-6.33 7.01 -6.66 6.02 -7 5 C-5.824375 4.87625 -5.824375 4.87625 -4.625 4.75 C-1.85250896 4.27193661 -1.85250896 4.27193661 -0.6875 1.9375 C-0.460625 1.298125 -0.23375 0.65875 0 0 Z " fill="#5ECB72" transform="translate(76,52)"/>
<path d="M0 0 C0.99 0.33 1.98 0.66 3 1 C2.67 1.66 2.34 2.32 2 3 C1.34 3 0.68 3 0 3 C0 2.01 0 1.02 0 0 Z M-2 3 C-0.02 3.99 -0.02 3.99 2 5 C2 6.32 2 7.64 2 9 C0.68 8.34 -0.64 7.68 -2 7 C-2 5.68 -2 4.36 -2 3 Z " fill="#549F61" transform="translate(44,157)"/>
<path d="M0 0 C0.99 0.33 1.98 0.66 3 1 C2.5359375 1.8353125 2.5359375 1.8353125 2.0625 2.6875 C0.94238179 5.12540433 0.43962636 7.36224186 0 10 C-0.66 9.34 -1.32 8.68 -2 8 C-1.42307692 1.42307692 -1.42307692 1.42307692 0 0 Z " fill="#548D61" transform="translate(39,166)"/>
<path d="M0 0 C0.33 0.99 0.66 1.98 1 3 C-1.64 3.66 -4.28 4.32 -7 5 C-7 4.01 -7 3.02 -7 2 C-2.25 0 -2.25 0 0 0 Z " fill="#52A160" transform="translate(110,153)"/>
<path d="M0 0 C0.33 0.66 0.66 1.32 1 2 C2.98 1.34 4.96 0.68 7 0 C4.6875 2.5 4.6875 2.5 2 5 C1.01 5 0.02 5 -1 5 C-0.67 4.34 -0.34 3.68 0 3 C-0.66 2.67 -1.32 2.34 -2 2 C-1.34 1.34 -0.68 0.68 0 0 Z " fill="#63AD6F" transform="translate(82,97)"/>
<path d="M0 0 C2.0625 0.4375 2.0625 0.4375 4 1 C2.84826645 3.46800047 1.95216435 5.04783565 0 7 C-0.66 6.67 -1.32 6.34 -2 6 C-1.125 1.125 -1.125 1.125 0 0 Z " fill="#54A364" transform="translate(52,145)"/>
<path d="M0 0 C0.66 0.33 1.32 0.66 2 1 C1.67 2.32 1.34 3.64 1 5 C-0.98 5.33 -2.96 5.66 -5 6 C-3.63016497 2.83884224 -3.0109362 2.0072908 0 0 Z " fill="#53A762" transform="translate(60,138)"/>
<path d="M0 0 C0.99 0.33 1.98 0.66 3 1 C-0.625 5.875 -0.625 5.875 -4 7 C-3.6875 4.625 -3.6875 4.625 -3 2 C-2.01 1.34 -1.02 0.68 0 0 Z " fill="#6FB279" transform="translate(95,89)"/>
<path d="M0 0 C1.15957207 3.47871621 0.77456651 4.34219645 -0.4375 7.6875 C-0.86869141 8.89986328 -0.86869141 8.89986328 -1.30859375 10.13671875 C-1.53675781 10.75160156 -1.76492187 11.36648437 -2 12 C-2.66 12 -3.32 12 -4 12 C-3.5317879 7.22423661 -2.75668002 3.95523655 0 0 Z " fill="#67AC74" transform="translate(175,87)"/>
<path d="M0 0 C-0.66 0 -1.32 0 -2 0 C-2 0.66 -2 1.32 -2 2 C-4.31 2.33 -6.62 2.66 -9 3 C-9 2.34 -9 1.68 -9 1 C-5.57367167 -0.61798838 -3.61944899 -1.34053666 0 0 Z " fill="#83B888" transform="translate(111,157)"/>
<path d="M0 0 C0.66 0.66 1.32 1.32 2 2 C1.67 2.66 1.34 3.32 1 4 C0.34 4 -0.32 4 -1 4 C-1.66 5.32 -2.32 6.64 -3 8 C-3.33 7.01 -3.66 6.02 -4 5 C-3.34 4.01 -2.68 3.02 -2 2 C-1.34 2 -0.68 2 0 2 C0 1.34 0 0.68 0 0 Z " fill="#86BB8B" transform="translate(155,125)"/>
<path d="M0 0 C0.99 0.33 1.98 0.66 3 1 C3 1.99 3 2.98 3 4 C2.34 4 1.68 4 1 4 C1 4.66 1 5.32 1 6 C0.01 5.67 -0.98 5.34 -2 5 C-1.34 3.35 -0.68 1.7 0 0 Z " fill="#59B368" transform="translate(163,108)"/>
</svg>
